<svg version="1.1" xmlns="http://www.w3.org/2000/svg" xmlns:xlink="http://www.w3.org/1999/xlink" width="24.48604" height="18.66434" viewBox="0,0,24.48604,18.66434"><defs><linearGradient x1="319.75" y1="177.66314" x2="319.75" y2="185.12456" gradientUnits="userSpaceOnUse" id="color-1"><stop offset="0" stop-color="#1e2131"/><stop offset="1" stop-color="#110f15"/></linearGradient></defs><g transform="translate(-307.75699,-170.66783)"><g data-paper-data="{&quot;isPaintingLayer&quot;:true}" fill-rule="nonzero" stroke="none" stroke-linecap="butt" stroke-linejoin="miter" stroke-miterlimit="10" stroke-dasharray="" stroke-dashoffset="0" style="mix-blend-mode: normal"><path d="M312.9465,184.33686c-0.09728,0 -0.17615,-0.06612 -0.17615,-0.14769v-6.37835c0,-0.08157 0.07887,-0.14768 0.17615,-0.14768h13.607c0.09728,0 0.17615,0.06612 0.17615,0.14768v6.37835c0,0.08157 -0.07887,0.14769 -0.17615,0.14769z" fill="url(#color-1)" stroke-width="0"/><path d="M328.48598,172.21611c0.01431,0.00415 0.02573,0.01498 0.03061,0.02908c2.76537,4.06617 4.13198,8.6542 3.62084,13.93547c-0.00175,0.02272 -0.01352,0.04348 -0.03214,0.05663c-1.84985,1.37195 -3.92068,2.41745 -6.12298,3.09133c-0.03185,0.01005 -0.06655,-0.00172 -0.0857,-0.02908c-0.46217,-0.64276 -0.88301,-1.32223 -1.2503,-2.03385c-0.01045,-0.01929 -0.01213,-0.04214 -0.00459,-0.06275c0.00773,-0.02136 0.02455,-0.03818 0.04591,-0.04591c0.66218,-0.24727 1.30172,-0.55141 1.91142,-0.90903c0.02321,-0.01287 0.0381,-0.03683 0.03935,-0.06334c0.00124,-0.0265 -0.01132,-0.05177 -0.03322,-0.06675c-0.12957,-0.09693 -0.25608,-0.19641 -0.37953,-0.29841c-0.0227,-0.01895 -0.05427,-0.02311 -0.08111,-0.01071c-3.95904,1.83031 -8.29762,1.83031 -12.30563,0c-0.02599,-0.01112 -0.056,-0.00701 -0.07805,0.01071c-0.12345,0.10202 -0.24996,0.20149 -0.37953,0.29841l-0.02296,0.02908c-0.01836,0.03644 -0.00489,0.08089 0.03061,0.10101c0.61234,0.35205 1.25085,0.65646 1.90989,0.91056l0.02755,0.01683c0.02455,0.02338 0.03076,0.06013 0.0153,0.09029c-0.36219,0.71316 -0.77947,1.39109 -1.25183,2.03385c-0.01916,0.02735 -0.05384,0.03913 -0.0857,0.02908c-2.19796,-0.6776 -4.26517,-1.72286 -6.1138,-3.09133c-0.01836,-0.0153 -0.02908,-0.03418 -0.03214,-0.05663c-0.42697,-4.56813 0.4438,-9.19442 3.61778,-13.937c0.0071,-0.01272 0.01848,-0.02248 0.03214,-0.02755c1.58699,-0.72999 3.26274,-1.2503 4.98439,-1.5472c0.03195,-0.00538 0.06383,0.00994 0.07958,0.03826c0.23469,0.41236 0.44522,0.838 0.63051,1.27478c1.85542,-0.28134 3.74265,-0.28134 5.59806,0c0.16682,-0.39177 0.40554,-0.8922 0.62133,-1.27478c0.01575,-0.0283 0.04763,-0.04364 0.07958,-0.03826c1.72138,0.29804 3.39681,0.81812 4.98439,1.5472M315.94004,183.39847c1.22583,0 2.20067,-1.10799 2.20067,-2.46694c0.01836,-1.3513 -0.96566,-2.46847 -2.20067,-2.46847c-1.22583,0 -2.20067,1.10952 -2.20067,2.46847c0,1.35896 0.9932,2.46694 2.20067,2.46694M324.07545,183.39847c1.23501,0 2.20067,-1.10799 2.20067,-2.46694c0.0199,-1.3513 -0.96566,-2.46847 -2.20067,-2.46847c-1.22583,0 -2.20067,1.10952 -2.20067,2.46847c0,1.35896 0.99473,2.46694 2.20067,2.46694" fill="#ffffff" stroke-width="1"/></g></g></svg>