<svg version="1.1" xmlns="http://www.w3.org/2000/svg" xmlns:xlink="http://www.w3.org/1999/xlink" width="227.54161" height="274.70572" viewBox="0,0,227.54161,274.70572"><g transform="translate(-18.11609,-71.5153)"><g stroke="none" stroke-miterlimit="10"><path d="M23.45635,346.22102c-2.88748,0 -5.22827,-19.3538 -5.22827,-43.22777l-0.11199,-231.15372l222.31335,-0.32423c2.88748,0 5.22826,19.35379 5.22826,43.22777v188.25007c0,23.87407 -2.34078,43.22777 -5.22826,43.22777z" fill="#242736" stroke-width="0"/><path d="M47.27993,87.30528c0,6.20543 -5.08343,11.23591 -11.35418,11.23591c-6.27075,0 -11.35418,-5.03048 -11.35418,-11.23591c0,-3.04872 0.11233,-10.94485 0.11233,-10.94485c0,0 8.05193,-0.29106 11.24186,-0.29106c6.27075,0 11.35418,5.03048 11.35418,11.23591z" fill="#c0c4cd" stroke-width="0"/><path d="M42.4975,85.72461v3.95958c-0.00038,1.13236 -0.60311,2.17902 -1.58229,2.74774l-3.43215,1.98128c-0.98105,0.56442 -2.18827,0.56442 -3.16934,0l-3.43215,-1.98128c-0.97918,-0.56759 -1.58272,-1.61298 -1.58465,-2.74477v-3.96255c0.0006,-1.13246 0.60384,-2.17902 1.58347,-2.74715l3.43215,-1.98128c0.98108,-0.56431 2.18824,-0.56431 3.16933,0l3.43215,1.98128c0.97962,0.56814 1.58288,1.6147 1.58347,2.74715zM31.9727,84.40693l3.08192,1.78028c0.52191,0.29907 1.16326,0.29907 1.68517,0l3.08192,-1.78028l-3.23057,-1.86592c-0.42892,-0.24651 -0.95653,-0.24651 -1.38547,0zM35.00644,92.75065v-4.67195c-0.29509,-0.07765 -0.57847,-0.19443 -0.84258,-0.34726l-3.08311,-1.7797v3.73245c0.00069,0.4945 0.26402,0.95142 0.69153,1.19994zM40.71365,89.68419v-3.73245l-3.08192,1.7797c-0.26411,0.15282 -0.54748,0.26961 -0.84258,0.34726v4.67195l3.23295,-1.86652c0.42752,-0.24852 0.69085,-0.70544 0.69153,-1.19994z" fill="#29292b" stroke-width="1"/></g></g></svg>