<svg version="1.1" xmlns="http://www.w3.org/2000/svg" xmlns:xlink="http://www.w3.org/1999/xlink" width="685.09122" height="364.31706" viewBox="0,0,685.09122,364.31706"><defs><linearGradient x1="305.00001" y1="-2.15853" x2="305.00001" y2="405.15852" gradientUnits="userSpaceOnUse" id="color-1"><stop offset="0" stop-color="#1e2131"/><stop offset="1" stop-color="#110f15"/></linearGradient><linearGradient x1="569.1215" y1="6.65854" x2="569.1215" y2="389.6055" gradientUnits="userSpaceOnUse" id="color-2"><stop offset="0" stop-color="#121218"/><stop offset="1" stop-color="#1d2031"/></linearGradient></defs><g transform="translate(29.44409,2.15853)"><g stroke="none" stroke-miterlimit="10"><path d="M-21.00348,362.15852c-4.66162,0 -8.44061,-3.6095 -8.44061,-8.06205v-348.19296c0,-4.45254 3.77899,-8.06204 8.44061,-8.06204h652.00697c4.66162,0 8.44061,3.6095 8.44061,8.06204v348.19297c0,4.45254 -3.77898,8.06205 -8.44061,8.06205z" fill="url(#color-1)" stroke-width="0"/><path d="M507.53995,359.6055c-5.00157,0 -9.05611,-4.48826 -9.05611,-10.02479v-338.89739c0,-5.53654 4.05457,-10.02478 9.05611,-10.02478h139.05107c5.00157,0 9.05611,4.48826 9.05611,10.02478v338.8974c0,5.53654 -4.05457,10.02479 -9.05611,10.02479z" fill="url(#color-2)" stroke-width="0"/><text transform="translate(535.98155,30.06069) scale(0.34766,0.34766)" font-size="40" xml:space="preserve" fill="#f3f5ff" stroke-width="1" font-family="&quot;Ubuntu-Regular&quot;, Sans Serif" font-weight="normal" text-anchor="start"><tspan x="0" dy="0">Navigation</tspan></text><path d="M273.93261,348.37567c-2.63369,0 -4.76872,-30.84722 -4.76872,-68.89904v-137.79795c0,-38.05178 2.13504,-68.89891 4.76872,-68.89891l202.77289,0.51676l-0.10214,206.18019c0,38.05178 -2.13504,68.899 -4.76872,68.899z" fill="#242736" stroke-width="0"/><path d="M24.98186,346.22102c-3.71232,0 -6.72179,-19.3538 -6.72179,-43.22777l-0.14398,-231.15372l285.81983,-0.32423c3.71232,0 6.72178,19.35379 6.72178,43.22777v188.25007c0,23.87407 -3.00945,43.22777 -6.72178,43.22777z" fill="#242736" stroke-width="0"/><path d="M47.27993,87.30528c0,6.20543 -5.08343,11.23591 -11.35418,11.23591c-6.27075,0 -11.35418,-5.03048 -11.35418,-11.23591c0,-3.04872 0.11233,-10.94485 0.11233,-10.94485c0,0 8.05193,-0.29106 11.24186,-0.29106c6.27075,0 11.35418,5.03048 11.35418,11.23591z" fill="#c0c4cd" stroke-width="0"/><path d="M42.4975,85.72461v3.95958c-0.00038,1.13236 -0.60311,2.17902 -1.58229,2.74774l-3.43215,1.98128c-0.98105,0.56442 -2.18827,0.56442 -3.16934,0l-3.43215,-1.98128c-0.97918,-0.56759 -1.58272,-1.61298 -1.58465,-2.74477v-3.96255c0.0006,-1.13246 0.60384,-2.17902 1.58347,-2.74715l3.43215,-1.98128c0.98108,-0.56431 2.18824,-0.56431 3.16933,0l3.43215,1.98128c0.97962,0.56814 1.58288,1.6147 1.58347,2.74715zM31.9727,84.40693l3.08192,1.78028c0.52191,0.29907 1.16326,0.29907 1.68517,0l3.08192,-1.78028l-3.23057,-1.86592c-0.42892,-0.24651 -0.95653,-0.24651 -1.38547,0zM35.00644,92.75065v-4.67195c-0.29509,-0.07765 -0.57847,-0.19443 -0.84258,-0.34726l-3.08311,-1.7797v3.73245c0.00069,0.4945 0.26402,0.95142 0.69153,1.19994zM40.71365,89.68419v-3.73245l-3.08192,1.7797c-0.26411,0.15282 -0.54748,0.26961 -0.84258,0.34726v4.67195l3.23295,-1.86652c0.42752,-0.24852 0.69085,-0.70544 0.69153,-1.19994z" fill="#29292b" stroke-width="1"/></g></g></svg>