<svg version="1.1" xmlns="http://www.w3.org/2000/svg" xmlns:xlink="http://www.w3.org/1999/xlink" width="125.9539" height="24.1196" viewBox="0,0,125.9539,24.1196"><g transform="translate(-257.02305,-167.9402)"><g stroke="none" stroke-miterlimit="10"><path d="M266.37241,192.0598c-5.1635,0 -9.34936,-3.85667 -9.34936,-8.61414v-6.89131c0,-4.75746 4.18586,-8.61415 9.34936,-8.61415h107.2552c5.1635,0 9.34934,3.85668 9.34934,8.61415v6.89131c0,4.75746 -4.18585,8.61414 -9.34934,8.61414z" fill="#1d1f2b" stroke-width="0"/><text transform="translate(285.80058,183.02976) scale(0.25248,0.25248)" font-size="40" xml:space="preserve" fill="#f3f5ff" stroke-width="1" font-family="&quot;Ubuntu-Regular&quot;, Sans Serif" font-weight="normal" text-anchor="start"><tspan x="0" dy="0">Home</tspan></text><path d="M281.24014,178.21653c-0.08902,0.09892 -0.21101,0.14837 -0.33301,0.14837c-0.1055,0 -0.21101,-0.03627 -0.29674,-0.1121l-1.35842,-1.21663v2.7531v1.12102v3.66639c0,0.78802 -0.49456,1.40458 -1.12102,1.40458h-2.38052c-0.58029,0 -1.05178,-0.47149 -1.05178,-1.05178v-3.99941c0,-0.08902 -0.07254,-0.16156 -0.16156,-0.16156h-2.4036c-0.08902,0 -0.16156,0.07254 -0.16156,0.16156v3.99941c0,0.5803 -0.47148,1.05178 -1.05178,1.05178h-2.32777c-0.00989,0 -0.01648,0 -0.02637,0c-0.00989,0 -0.01648,0 -0.02638,0c-0.61986,0 -1.12102,-0.50447 -1.12102,-1.12103v-4.10821v-3.52132v-0.23739l-1.35841,1.21664c-0.08573,0.07584 -0.19124,0.1121 -0.29674,0.1121c-0.122,0 -0.24399,-0.04945 -0.33301,-0.14837c-0.16156,-0.18463 -0.14837,-0.4649 0.03627,-0.62975l7.5438,-6.74591c0.17475,-0.15497 0.43852,-0.14837 0.60338,0.0099c0.01648,0.0099 0.02967,0.01978 0.04286,0.03297l7.54381,6.7459c0.18134,0.16485 0.19783,0.44512 0.03956,0.62975zM278.35846,179.78596v-3.54771l-5.04789,-4.51376l-5.00502,4.4709v1.03199v3.52132v4.11151c0,0.12859 0.1055,0.2308 0.2308,0.2308c0.00989,0 0.01648,0 0.02637,0c0.00989,0 0.01649,0 0.02638,0h2.32776c0.08902,0 0.16156,-0.07253 0.16156,-0.16155v-3.99941c0,-0.5803 0.47149,-1.05177 1.05178,-1.05177h2.4036c0.58029,0 1.05178,0.47148 1.05178,1.05177v3.99281c0,0.08902 0.07254,0.16156 0.16156,0.16156h2.38052c0.07254,0 0.2308,-0.19452 0.2308,-0.51434v-3.6631z" fill="#000000" stroke-width="1"/></g></g></svg>