<svg version="1.1" xmlns="http://www.w3.org/2000/svg" xmlns:xlink="http://www.w3.org/1999/xlink" width="83.00045" height="99.85225" viewBox="0,0,83.00045,99.85225"><defs><linearGradient x1="320.00001" y1="141.1308" x2="320.00001" y2="203.58588" gradientUnits="userSpaceOnUse" id="color-1"><stop offset="0" stop-color="#27273a"/><stop offset="1" stop-color="#2d324b"/></linearGradient></defs><g transform="translate(-278.4998,-130.26388)"><g stroke-miterlimit="10"><path d="M297.09981,203.58588c-4.59906,0 -8.32735,-3.72828 -8.32735,-8.32734v-45.8004c0,-4.59907 3.72828,-8.32734 8.32735,-8.32734h45.8004c4.59906,0 8.32735,3.72828 8.32735,8.32734v45.8004c0,4.59907 -3.72828,8.32734 -8.32735,8.32734z" fill="url(#color-1)" fill-rule="nonzero" stroke="none" stroke-width="0"/><path d="M315.2911,178.69726c0,-0.4001 0.32435,-0.72445 0.72445,-0.72445h13.04007c0.4001,0 0.72445,0.32435 0.72445,0.72445c0,0.4001 -0.32435,0.72445 -0.72445,0.72445h-13.04007c-0.4001,0 -0.72445,-0.32435 -0.72445,-0.72445M315.2911,172.90167c0,-0.4001 0.32435,-0.72445 0.72445,-0.72445h13.04007c0.4001,0 0.72445,0.32435 0.72445,0.72445c0,0.4001 -0.32435,0.72445 -0.72445,0.72445h-13.04007c-0.4001,0 -0.72445,-0.32435 -0.72445,-0.72445M315.2911,167.10609c0,-0.4001 0.32435,-0.72445 0.72445,-0.72445h13.04007c0.4001,0 0.72445,0.32435 0.72445,0.72445c0,0.4001 -0.32435,0.72445 -0.72445,0.72445h-13.04007c-0.4001,0 -0.72445,-0.32435 -0.72445,-0.72445M310.9444,168.55498c0.8002,0 1.44889,-0.64869 1.44889,-1.44889c0,-0.8002 -0.64869,-1.44889 -1.44889,-1.44889c-0.8002,0 -1.44889,0.64869 -1.44889,1.44889c0,0.8002 0.64869,1.44889 1.44889,1.44889M310.9444,174.35057c0.8002,0 1.44889,-0.64869 1.44889,-1.44889c0,-0.8002 -0.64869,-1.44889 -1.44889,-1.44889c-0.8002,0 -1.44889,0.64869 -1.44889,1.44889c0,0.8002 0.64869,1.44889 1.44889,1.44889M310.9444,180.14616c0.8002,0 1.44889,-0.64869 1.44889,-1.44889c0,-0.8002 -0.64869,-1.44889 -1.44889,-1.44889c-0.8002,0 -1.44889,0.64869 -1.44889,1.44889c0,0.8002 0.64869,1.44889 1.44889,1.44889" fill="#ffffff" fill-rule="evenodd" stroke="#ffffff" stroke-width="0.5"/><text transform="translate(289.32234,227.33376) scale(0.22259,0.22259)" font-size="40" xml:space="preserve" fill="#f3f5ff" fill-rule="nonzero" stroke="none" stroke-width="1" font-family="&quot;Ubuntu-Regular&quot;, Sans Serif" font-weight="normal" text-anchor="start"><tspan x="0" dy="0">COMING SOON</tspan></text><path d="M290.11652,212.51433c-6.00153,0 -10.86672,-4.86521 -10.86672,-10.86673v-59.76699c0,-6.00153 4.8652,-10.86673 10.86672,-10.86673h59.767c6.00153,0 10.86673,4.86521 10.86673,10.86673v59.76699c0,6.00153 -4.86521,10.86673 -10.86673,10.86673z" fill="none" fill-rule="nonzero" stroke-opacity="0.49804" stroke="#ffffff" stroke-width="1.5"/></g></g></svg>