<svg version="1.1" xmlns="http://www.w3.org/2000/svg" xmlns:xlink="http://www.w3.org/1999/xlink" width="473.86115" height="26.33627" viewBox="0,0,473.86115,26.33627"><defs><linearGradient x1="542.41906" y1="170.16426" x2="542.41906" y2="190.08703" gradientUnits="userSpaceOnUse" id="color-1"><stop offset="0" stop-color="#3594c3"/><stop offset="1" stop-color="#51e5cf"/></linearGradient></defs><g transform="translate(-83.06942,-166.83187)"><g stroke-miterlimit="10"><path d="M91.62089,193.16814c-4.72284,0 -8.55147,-3.06385 -8.55147,-6.8433v-12.64967c0,-3.77945 3.82863,-6.8433 8.55147,-6.8433h456.75821c4.72284,0 8.55147,3.06385 8.55147,6.8433v12.64967c0,3.77945 -3.82863,6.8433 -8.55147,6.8433z" fill="#242736" stroke="none" stroke-width="0" stroke-linejoin="miter"/><text transform="translate(91.21645,184.21171) scale(0.29093,0.29093)" font-size="40" xml:space="preserve" fill-opacity="0.50196" fill="#bfdbff" stroke="none" stroke-width="1" stroke-linejoin="miter" font-family="&quot;Ubuntu-Regular&quot;, Sans Serif" font-weight="normal" text-anchor="start"><tspan x="0" dy="0">What's on your mind?</tspan></text><path d="M537.77438,190.08703c-2.93634,0 -5.31671,-2.5164 -5.31671,-5.62052v-8.68175c0,-3.10413 2.38037,-5.62052 5.31671,-5.62052h9.28938c2.93634,0 5.31671,2.5164 5.31671,5.62052v8.68175c0,3.10413 -2.38037,5.62052 -5.31671,5.62052z" fill="url(#color-1)" stroke="none" stroke-width="0" stroke-linejoin="miter"/><path d="M547.20434,176.90482l-1.49351,7.09589c-0.1179,0.82145 -0.69136,1.505 -1.47981,1.7639c-0.22888,0.07708 -0.46875,0.11655 -0.71024,0.11684c-0.58535,-0.00102 -1.14607,-0.23566 -1.55768,-0.65185l-0.75981,-0.75981c-0.08305,-0.08283 -0.19557,-0.12931 -0.31286,-0.12922h-1.40191c-0.19712,-0.00098 -0.39147,-0.04635 -0.56865,-0.13275l-0.00309,0.00354l-0.0115,-0.0115c-0.26128,-0.12852 -0.47306,-0.33934 -0.60272,-0.60005l-0.0115,-0.0115l0.00354,-0.00309c-0.08641,-0.17717 -0.13177,-0.37153 -0.13275,-0.56865v-1.40192c0.00009,-0.11752 -0.04655,-0.23022 -0.12966,-0.31331l-0.76025,-0.75981c-0.59368,-0.59356 -0.79986,-1.47221 -0.53219,-2.26791c0.26767,-0.7957 0.963,-1.37107 1.79472,-1.48514l7.08039,-1.49131c0.44651,-0.10683 0.91639,0.02742 1.23907,0.35402c0.3297,0.32687 0.46288,0.80321 0.35047,1.25366zM539.04597,181.6146v1.21916l6.64894,-6.64983l-7.01004,1.47583c-0.51239,0.05675 -0.94463,0.40704 -1.10631,0.89656c-0.1667,0.47701 -0.04214,1.00741 0.3195,1.36032l0.76071,0.75981c0.24914,0.24848 0.38856,0.58629 0.38721,0.93814zM546.32105,176.80967l-6.64983,6.64761h1.21916c0.3519,-0.00089 0.68956,0.13902 0.93773,0.38854l0.76113,0.76113c0.35652,0.35527 0.88331,0.47837 1.36037,0.3179c0.47707,-0.16048 0.82233,-0.57696 0.89163,-1.07549z" fill="#f3f5ff" stroke="#f3f5ff" stroke-width="0.25" stroke-linejoin="round"/></g></g></svg>