<svg version="1.1" xmlns="http://www.w3.org/2000/svg" xmlns:xlink="http://www.w3.org/1999/xlink" width="70.06179" height="83.11359" viewBox="0,0,70.06179,83.11359"><defs><linearGradient x1="320.00001" y1="136.7332" x2="320.00001" y2="206.79499" gradientUnits="userSpaceOnUse" id="color-1"><stop offset="0" stop-color="#1e1e2c"/><stop offset="1" stop-color="#2d324b"/></linearGradient></defs><g transform="translate(-284.96911,-136.7332)"><g stroke-miterlimit="10"><path d="M294.31068,206.79499c-5.15921,0 -9.34157,-4.18236 -9.34157,-9.34157v-51.37865c0,-5.15921 4.18236,-9.34157 9.34157,-9.34157h51.37865c5.15921,0 9.34157,4.18236 9.34157,9.34157v51.37865c0,5.15921 -4.18236,9.34157 -9.34157,9.34157z" fill="url(#color-1)" stroke="none" stroke-width="0"/><path d="M332.14804,171.7641c0,6.70922 -5.43887,12.14806 -12.14803,12.14806c-6.70917,0 -12.14806,-5.43887 -12.14806,-12.14806c0,-6.70922 5.43887,-12.14806 12.14806,-12.14806c6.70618,0.00726 12.14077,5.4419 12.14803,12.14806zM330.12345,171.7641c0,-5.59097 -4.53238,-10.12336 -10.12336,-10.12336c-5.59097,0 -10.12336,4.53238 -10.12336,10.12336c0,5.59097 4.53238,10.1234 10.12336,10.1234c5.58842,-0.00614 10.11724,-4.53494 10.12336,-10.1234zM324.04945,170.75177h-3.03705v-3.03701c0,-0.55906 -0.4532,-1.01233 -1.01233,-1.01233c-0.55913,0 -1.01233,0.45324 -1.01233,1.01233v3.03701h-3.03699c-0.55913,0 -1.01238,0.45324 -1.01238,1.0123c0,0.55906 0.45324,1.01238 1.01238,1.01238h3.03699v3.03699c0,0.55906 0.45324,1.01238 1.01233,1.01238c0.55913,0 1.01233,-0.45324 1.01233,-1.01238v-3.03699h3.03705c0.55913,0 1.01233,-0.45324 1.01233,-1.01238c0,-0.55906 -0.45324,-1.0123 -1.01233,-1.0123z" fill="#f3f5ff" stroke="#f3f5ff" stroke-width="0"/><text transform="translate(299.04125,216.96341) scale(0.23067,0.23067)" font-size="40" xml:space="preserve" fill="#f3f5ff" stroke="none" stroke-width="1" font-family="&quot;Ubuntu-Regular&quot;, Sans Serif" font-weight="normal" text-anchor="start"><tspan x="0" dy="0">New Chat</tspan></text></g></g></svg>