<svg version="1.1" xmlns="http://www.w3.org/2000/svg" xmlns:xlink="http://www.w3.org/1999/xlink" width="83.00045" height="97.59075" viewBox="0,0,83.00045,97.59075"><defs><linearGradient x1="319.99997" y1="141.13081" x2="319.99997" y2="203.58589" gradientUnits="userSpaceOnUse" id="color-1"><stop offset="0" stop-color="#27273a"/><stop offset="1" stop-color="#2d324b"/></linearGradient></defs><g transform="translate(-278.49978,-130.26388)"><g data-paper-data="{&quot;isPaintingLayer&quot;:true}" fill-rule="nonzero" stroke-linecap="butt" stroke-linejoin="miter" stroke-miterlimit="10" stroke-dasharray="" stroke-dashoffset="0" style="mix-blend-mode: normal"><path d="M297.0998,203.58589c-4.59906,0 -8.32735,-3.72828 -8.32735,-8.32735v-45.8004c0,-4.59906 3.72828,-8.32735 8.32735,-8.32735h45.8004c4.59906,0 8.32735,3.72828 8.32735,8.32735v45.8004c0,4.59906 -3.72828,8.32735 -8.32735,8.32735z" fill="url(#color-1)" stroke="none" stroke-width="0"/><path d="M322.45793,166.17466c0,2.48635 -2.01558,4.50193 -4.50193,4.50193c-2.48635,0 -4.50193,-2.01558 -4.50193,-4.50193c0,-2.48635 2.01558,-4.50193 4.50193,-4.50193c2.48635,0 4.50193,2.01558 4.50193,4.50193M317.95599,169.17595c1.65757,0 3.00129,-1.34372 3.00129,-3.00129c0,-1.65757 -1.34372,-3.00129 -3.00129,-3.00129c-1.65757,0 -3.00129,1.34372 -3.00129,3.00129c0,1.65757 1.34372,3.00129 3.00129,3.00129M318.34016,179.68045c-0.17182,-0.48741 -0.28713,-0.99294 -0.34365,-1.50665h-7.54373c0.0015,-0.36916 0.2311,-1.47963 1.24854,-2.49707c0.97842,-0.97842 2.81971,-1.99886 6.25468,-1.99886c0.39017,0 0.76032,0.01251 1.11048,0.03752c0.33915,-0.51172 0.74432,-0.97542 1.20652,-1.37759c-0.7003,-0.10505 -1.47263,-0.15857 -2.31699,-0.16057c-7.50322,0 -9.00386,4.50193 -9.00386,6.00257c0,1.50064 1.50064,1.50064 1.50064,1.50064zM323.78748,172.86753c0.27012,-0.91989 1.57267,-0.91989 1.84429,0l0.06453,0.2221c0.08163,0.27904 0.28528,0.50608 0.55383,0.61746c0.26855,0.11139 0.5731,0.09513 0.82827,-0.04422l0.20409,-0.11105c0.84186,-0.4592 1.76326,0.4622 1.30556,1.30406l-0.11255,0.20409c-0.13877,0.25504 -0.15472,0.55917 -0.04338,0.82732c0.11134,0.26815 0.33802,0.47153 0.61662,0.55327l0.2236,0.06753c0.91839,0.27012 0.91839,1.57267 0,1.84429l-0.2251,0.06453c-0.2785,0.08233 -0.5048,0.28625 -0.61556,0.55471c-0.11076,0.26846 -0.09411,0.57263 0.04532,0.82739l0.11105,0.20409c0.4577,0.84186 -0.4637,1.76326 -1.30556,1.30556l-0.20409,-0.11255c-0.25504,-0.13877 -0.55917,-0.15472 -0.82732,-0.04338c-0.26815,0.11134 -0.47153,0.33802 -0.55327,0.61662l-0.06753,0.2236c-0.27012,0.91839 -1.57267,0.91839 -1.84429,0l-0.06453,-0.2251c-0.08233,-0.2785 -0.28625,-0.5048 -0.55471,-0.61556c-0.26846,-0.11076 -0.57263,-0.09411 -0.82739,0.04532l-0.20409,0.11105c-0.84186,0.4577 -1.76326,-0.4637 -1.30556,-1.30556l0.11255,-0.20409c0.13877,-0.25504 0.15472,-0.55917 0.04338,-0.82732c-0.11134,-0.26815 -0.33802,-0.47153 -0.61662,-0.55327l-0.2221,-0.06753c-0.91989,-0.27012 -0.91989,-1.57267 0,-1.84429l0.2221,-0.06453c0.27904,-0.08163 0.50608,-0.28528 0.61746,-0.55383c0.11139,-0.26855 0.09513,-0.5731 -0.04422,-0.82827l-0.11105,-0.20409c-0.4592,-0.84186 0.4622,-1.76326 1.30406,-1.30556l0.20409,0.11255c0.25504,0.13877 0.55917,0.15472 0.82732,0.04338c0.26815,-0.11134 0.47153,-0.33802 0.55327,-0.61662zM326.95984,177.42949c0,-1.24317 -1.00779,-2.25096 -2.25096,-2.25096c-1.24317,0 -2.25096,1.00779 -2.25096,2.25096c0,1.24317 1.00779,2.25096 2.25096,2.25096c1.24317,0 2.25096,-1.00779 2.25096,-2.25096" fill="#ffffff" stroke="#ffffff" stroke-width="0.5"/><text transform="translate(296.86789,225.07225) scale(0.22259,0.22259)" font-size="40" xml:space="preserve" fill="#f3f5ff" fill-rule="nonzero" stroke="none" stroke-width="1" stroke-linecap="butt" stroke-linejoin="miter" stroke-miterlimit="10" stroke-dasharray="" stroke-dashoffset="0" font-family="&quot;Ubuntu-Regular&quot;, Sans Serif" font-weight="normal" text-anchor="start" style="mix-blend-mode: normal"><tspan x="0" dy="0">My Account</tspan></text><path d="M290.11651,212.51433c-6.00153,0 -10.86672,-4.86521 -10.86672,-10.86673v-59.76699c0,-6.00153 4.8652,-10.86673 10.86672,-10.86673h59.767c6.00153,0 10.86673,4.86521 10.86673,10.86673v59.76699c0,6.00153 -4.86521,10.86673 -10.86673,10.86673z" fill="none" stroke-opacity="0.49804" stroke="#ffffff" stroke-width="1.5"/></g></g></svg>