<svg version="1.1" xmlns="http://www.w3.org/2000/svg" xmlns:xlink="http://www.w3.org/1999/xlink" width="653.88817" height="364.31706" viewBox="0,0,653.88817,364.31706"><defs><linearGradient x1="323.52465" y1="-1.77664" x2="323.52465" y2="405.54041" gradientUnits="userSpaceOnUse" id="color-1"><stop offset="0" stop-color="#1e2131"/><stop offset="1" stop-color="#110f15"/></linearGradient></defs><g transform="translate(3.41948,1.77664)"><g data-paper-data="{&quot;isPaintingLayer&quot;:true}" fill-rule="nonzero" stroke="none" stroke-linecap="butt" stroke-linejoin="miter" stroke-miterlimit="10" stroke-dasharray="" stroke-dashoffset="0" style="mix-blend-mode: normal"><path d="M4.83184,362.54041c-4.55708,0 -8.25132,-3.6095 -8.25132,-8.06205v-348.19296c0,-4.45254 3.69424,-8.06204 8.25132,-8.06204h637.38553c4.55708,0 8.25132,3.6095 8.25132,8.06204v348.19297c0,4.45254 -3.69423,8.06205 -8.25132,8.06205z" fill="url(#color-1)" stroke-width="0"/><text transform="translate(285.15783,113.24293) scale(0.74886,0.74886)" font-size="40" xml:space="preserve" fill="#f3f5ff" fill-rule="nonzero" stroke="none" stroke-width="1" stroke-linecap="butt" stroke-linejoin="miter" stroke-miterlimit="10" stroke-dasharray="" stroke-dashoffset="0" font-family="&quot;Ubuntu-Regular&quot;, Sans Serif" font-weight="normal" text-anchor="start" style="mix-blend-mode: normal"><tspan x="0" dy="0">BlonkAI</tspan></text><path d="M275.32528,98.26793v9.32492c-0.00091,2.66673 -1.42032,5.13163 -3.72633,6.47098l-8.0828,4.66596c-2.3104,1.32925 -5.15345,1.32925 -7.46385,0l-8.0828,-4.66596c-2.30597,-1.33668 -3.72734,-3.79861 -3.73191,-6.464v-9.3319c0.00141,-2.66696 1.42208,-5.13163 3.72913,-6.46961l8.0828,-4.66596c2.31049,-1.32897 5.15336,-1.32897 7.46385,0l8.0828,4.66596c2.30705,1.33796 3.7277,3.80263 3.72913,6.46961zM250.53918,95.16477l7.25798,4.19263c1.2291,0.70435 2.73948,0.70435 3.9686,0l7.25798,-4.19263l-7.60809,-4.39429c-1.01013,-0.58053 -2.25266,-0.58053 -3.2628,0zM257.68373,114.81439v-11.00253c-0.69496,-0.18283 -1.36229,-0.45787 -1.98429,-0.81779l-7.26081,-4.19124v8.78996c0.00163,1.16458 0.62178,2.24061 1.62862,2.82591zM271.12424,107.59281v-8.78996l-7.25798,4.19124c-0.62198,0.35989 -1.28934,0.63494 -1.98428,0.81779v11.00253l7.61368,-4.39567c1.00684,-0.5853 1.62694,-1.66134 1.6286,-2.82591z" fill="#f3f5ff" stroke-width="1"/><path d="M297.00003,249.7664c0,-0.98743 0.80047,-1.7879 1.7879,-1.7879h10.72739c0.98743,0 1.7879,0.80047 1.7879,1.7879v10.72739c0,0.98743 -0.80047,1.7879 -1.7879,1.7879h-10.72739c-0.98743,0 -1.7879,-0.80047 -1.7879,-1.7879zM304.98297,253.86783l-2.04714,0.25656l-0.0733,0.3397l0.40228,0.0742c0.26282,0.06258 0.31467,0.15734 0.25746,0.41926l-0.65973,3.10021c-0.17343,0.80187 0.09386,1.17912 0.72231,1.17912c0.4872,0 1.05307,-0.22528 1.30964,-0.53458l0.07867,-0.37188c-0.17879,0.15734 -0.43982,0.21991 -0.61325,0.21991c-0.24584,0 -0.33523,-0.17253 -0.27176,-0.47647zM304.15162,252.89522c0.49371,0 0.89395,-0.40023 0.89395,-0.89395c0,-0.49371 -0.40023,-0.89395 -0.89395,-0.89395c-0.49371,0 -0.89395,0.40023 -0.89395,0.89395c0,0.49371 0.40023,0.89395 0.89395,0.89395" fill="#ffffff" stroke-width="1"/></g></g></svg>