<svg version="1.1" xmlns="http://www.w3.org/2000/svg" xmlns:xlink="http://www.w3.org/1999/xlink" width="17.92646" height="13.66434" viewBox="0,0,17.92646,13.66434"><defs><linearGradient x1="320.31017" y1="177.1167" x2="320.31017" y2="184.57812" gradientUnits="userSpaceOnUse" id="color-1"><stop offset="0" stop-color="#1e2131"/><stop offset="1" stop-color="#110f15"/></linearGradient></defs><g transform="translate(-311.03677,-173.16783)"><g data-paper-data="{&quot;isPaintingLayer&quot;:true}" fill-rule="nonzero" stroke="none" stroke-linecap="butt" stroke-linejoin="miter" stroke-miterlimit="10" stroke-dasharray="" stroke-dashoffset="0" style="mix-blend-mode: normal"><path d="M313.50666,183.79042c-0.09728,0 -0.17615,-0.06612 -0.17615,-0.14769v-6.37835c0,-0.08157 0.07886,-0.14768 0.17615,-0.14768h13.607c0.09728,0 0.17615,0.06612 0.17615,0.14768v6.37835c0,0.08157 -0.07887,0.14769 -0.17615,0.14769z" fill="url(#color-1)" stroke-width="0"/><path d="M326.21267,174.30134c0.01048,0.00304 0.01884,0.01097 0.02241,0.02129c2.02455,2.97688 3.02506,6.33582 2.65085,10.20229c-0.00128,0.01663 -0.0099,0.03183 -0.02353,0.04146c-1.35429,1.00442 -2.87037,1.76984 -4.48269,2.26319c-0.02332,0.00736 -0.04872,-0.00126 -0.06274,-0.02129c-0.33836,-0.47057 -0.64646,-0.96802 -0.91536,-1.489c-0.00765,-0.01412 -0.00888,-0.03085 -0.00336,-0.04594c0.00566,-0.01564 0.01797,-0.02795 0.03361,-0.03361c0.48479,-0.18103 0.953,-0.40369 1.39937,-0.66551c0.01699,-0.00942 0.02789,-0.02696 0.02881,-0.04637c0.00091,-0.0194 -0.00829,-0.0379 -0.02432,-0.04887c-0.09486,-0.07096 -0.18748,-0.14379 -0.27786,-0.21847c-0.01662,-0.01387 -0.03973,-0.01692 -0.05938,-0.00784c-2.89845,1.33999 -6.07477,1.33999 -9.00907,0c-0.01903,-0.00814 -0.041,-0.00513 -0.05714,0.00784c-0.09038,0.07469 -0.183,0.14751 -0.27786,0.21847l-0.01681,0.02129c-0.01344,0.02668 -0.00358,0.05922 0.02241,0.07395c0.4483,0.25774 0.91576,0.4806 1.39825,0.66663l0.02017,0.01232c0.01797,0.01712 0.02252,0.04402 0.0112,0.0661c-0.26516,0.52211 -0.57066,1.01843 -0.91648,1.489c-0.01403,0.02002 -0.03942,0.02865 -0.06274,0.02129c-1.60915,-0.49608 -3.12257,-1.26132 -4.47597,-2.26319c-0.01344,-0.0112 -0.02129,-0.02502 -0.02353,-0.04146c-0.31259,-3.34437 0.32491,-6.73132 2.64861,-10.20341c0.0052,-0.00931 0.01353,-0.01646 0.02353,-0.02017c1.16185,-0.53443 2.38868,-0.91536 3.64912,-1.13272c0.02339,-0.00394 0.04673,0.00728 0.05826,0.02801c0.17182,0.30189 0.32595,0.61351 0.4616,0.93328c1.35837,-0.20597 2.74003,-0.20597 4.09839,0c0.12213,-0.28682 0.2969,-0.65319 0.45488,-0.93328c0.01153,-0.02072 0.03487,-0.03195 0.05826,-0.02801c1.26024,0.2182 2.48684,0.59895 3.64912,1.13272M317.02767,182.48805c0.89744,0 1.61113,-0.81117 1.61113,-1.80607c0.01344,-0.9893 -0.70697,-1.80719 -1.61113,-1.80719c-0.89744,0 -1.61113,0.81229 -1.61113,1.80719c0,0.99491 0.72713,1.80607 1.61113,1.80607M322.98368,182.48805c0.90416,0 1.61113,-0.81117 1.61113,-1.80607c0.01457,-0.9893 -0.70697,-1.80719 -1.61113,-1.80719c-0.89744,0 -1.61113,0.81229 -1.61113,1.80719c0,0.99491 0.72825,1.80607 1.61113,1.80607" fill="#ffffff" stroke-width="1"/></g></g></svg>