<svg version="1.1" xmlns="http://www.w3.org/2000/svg" xmlns:xlink="http://www.w3.org/1999/xlink" width="97.46706" height="37.2906" viewBox="0,0,97.46706,37.2906"><g transform="translate(-271.62694,-159.73447)"><g stroke="none" stroke-miterlimit="10"><text transform="translate(296.80874,180.41735) scale(0.47914,0.47914)" font-size="40" xml:space="preserve" fill="#f3f5ff" font-family="&quot;Ubuntu-Regular&quot;, Sans Serif" font-weight="normal" text-anchor="start"><tspan x="0" dy="0">BlonkAI</tspan></text><path d="M291.51763,170.83596v5.96632c-0.00058,1.70624 -0.90876,3.28335 -2.3842,4.1403l-5.17158,2.9854c-1.47825,0.85049 -3.29731,0.85049 -4.77556,0l-5.17158,-2.9854c-1.47542,-0.85524 -2.38485,-2.43045 -2.38777,-4.13583v-5.97079c0.0009,-1.70639 0.90988,-3.28335 2.38599,-4.13942l5.17158,-2.9854c1.47831,-0.85031 3.29725,-0.85031 4.77556,0l5.17158,2.9854c1.47611,0.85606 2.38508,2.43302 2.38599,4.13942zM275.65884,168.85048l4.64384,2.68255c0.78641,0.45066 1.75279,0.45066 2.53921,0l4.64384,-2.68255l-4.86785,-2.81158c-0.64631,-0.37144 -1.44131,-0.37144 -2.08762,0zM280.23012,181.42281v-7.0397c-0.44465,-0.11698 -0.87163,-0.29296 -1.2696,-0.52324l-4.64565,-2.68166v5.62404c0.00104,0.74513 0.39783,1.4336 1.04203,1.80809zM288.82969,176.80226v-5.62404l-4.64384,2.68166c-0.39796,0.23027 -0.82495,0.40625 -1.26959,0.52324v7.0397l4.87143,-2.81246c0.6442,-0.37449 1.04096,-1.06297 1.04202,-1.80809z" fill="#f3f5ff"/><text transform="translate(290.4649,194.56332) scale(0.19694,0.19694)" font-size="40" xml:space="preserve" fill="#0e9f7b" font-family="&quot;Ubuntu-Regular&quot;, Sans Serif" font-weight="normal" text-anchor="start"><tspan x="0" dy="0">BlueDragon Studios</tspan></text></g></g></svg>